<?xml version="1.0" encoding="UTF-8"?>
<svg id="Capa_2" data-name="Capa 2" xmlns="http://www.w3.org/2000/svg" viewBox="0 0 929.93 232.07">
  <defs>
    <style>
      .cls-1 {
        fill: #fff;
      }

      .cls-2 {
        fill: aqua;
      }

      .cls-3 {
        fill: none;
        stroke: #fff;
        stroke-miterlimit: 10;
        stroke-width: 2px;
      }
    </style>
  </defs>
  <g id="Capa_1-2" data-name="Capa 1">
    <g>
      <g>
        <path d="M295.55,66.24v9.15h51.24v26.84h-51.24v22.57h-31.72V39.4h90.28v26.84h-58.56Z"/>
        <path d="M389.48,124.8h-31.72V39.4h31.72V124.8Z"/>
        <path d="M498.06,66.24h-36.6v58.56h-31.72v-58.56h-36.6v-26.84h104.92v26.84Z"/>
        <path d="M611.76,39.4V124.8h-41.48l-36.84-50.38v50.38h-31.72V39.4h41.48l36.84,50.38V39.4h31.72Z"/>
        <path d="M648.36,63.8v7.93h58.56v20.74h-58.56v7.93h58.56v24.4h-90.28V39.4h90.28v24.4h-58.56Z"/>
        <path d="M741.08,94.67c0,4.15,3.9,6.95,24.03,6.95,18.79,0,21.59-1.22,21.59-4.39,0-3.66-2.81-4.15-22.81-4.76-38.55-1.22-53.31-7.56-53.31-27.45,0-18.79,18.42-26.84,52.09-26.84s52.09,8.05,52.09,29.89h-31.72c0-4.51-7.32-5.49-22.81-5.49s-17.93,.73-17.93,4.03,3.05,3.17,21.59,3.9c33.67,1.34,54.53,3.66,54.53,25.98,0,23.54-19.52,29.52-54.53,29.52s-54.53-5.98-54.53-31.35h31.72Z"/>
        <path d="M852.59,94.67c0,4.15,3.9,6.95,24.03,6.95,18.79,0,21.59-1.22,21.59-4.39,0-3.66-2.81-4.15-22.81-4.76-38.55-1.22-53.31-7.56-53.31-27.45,0-18.79,18.42-26.84,52.09-26.84s52.09,8.05,52.09,29.89h-31.72c0-4.51-7.32-5.49-22.81-5.49s-17.93,.73-17.93,4.03,3.05,3.17,21.59,3.9c33.67,1.34,54.53,3.66,54.53,25.98,0,23.54-19.52,29.52-54.53,29.52s-54.53-5.98-54.53-31.35h31.72Z"/>
        <path d="M363.62,164.1c0,19.03-13.3,32.69-32.69,32.69h-35.38v20.01h-31.72v-85.4h67.1c19.4,0,32.69,13.66,32.69,32.69Zm-31.72,0c0-5.86-3.9-5.86-7.08-5.86h-29.28v11.71h29.28c3.17,0,7.08,0,7.08-5.86Z"/>
        <path d="M451.95,192.28l15.13,24.52h-37.57l-11.83-20.01h-18.67v20.01h-31.72v-85.4h67.1c19.4,0,32.69,13.66,32.69,32.69,0,12.44-5.73,22.69-15.13,28.18Zm-52.95-22.32h29.28c3.17,0,7.08,0,7.08-5.86s-3.9-5.86-7.08-5.86h-29.28v11.71Z"/>
        <path d="M469.52,173.98c0-29.64,16.1-43.8,53.68-43.8s53.68,14.27,53.68,43.8-16.23,44.04-53.68,44.04-53.68-14.27-53.68-44.04Zm75.64,0c0-8.91-3.17-16.96-21.96-16.96s-21.96,7.93-21.96,16.96,3.29,17.2,21.96,17.2,21.96-8.17,21.96-17.2Z"/>
      </g>
      <g>
        <g>
          <path d="M115.77,232.05C58.14,233.11-.13,184.89,0,115.73,.12,50,52.71-.11,116.15,0c65.86,.12,116.47,54.14,115.76,117.17-.74,66.22-56.65,115.93-116.14,114.88Zm-36.91-47.75c-1.6,.28-3.11,1.68-4.14,3.75-.82,1.64-1.81,3.18-2.62,4.83-2.13,4.34-1.01,9.06,2.86,11.92,1.06,.79,2.23,1.5,3.45,1.99,9.44,3.8,19.24,6.33,29.39,7.05,14.93,1.06,29.53-.71,43.55-6.23,2.14-.84,4.34-1.81,6.16-3.18,3.78-2.83,4.75-7.34,2.7-11.56-1.02-2.09-2.21-4.11-3.52-6.03-1.96-2.86-3.57-3.28-6.8-1.98-2.01,.81-3.94,1.79-5.96,2.55-13.84,5.25-28.07,7.09-42.59,3.74-7.25-1.67-14.27-4.32-22.48-6.86ZM116.32,17.82c-12.71-.43-24.79,2.3-36.59,6.58-7.35,2.67-11.54,8.78-6.33,17.23,4.5,7.3,6.37,6.44,11.83,4,14.52-6.49,29.62-8.25,45.3-5.16,6.75,1.33,13.08,3.71,19.35,6.41,3.15,1.35,5.04,.86,6.85-1.91,1.45-2.21,2.63-4.62,3.8-7,.92-1.87,.79-3.79,.22-5.81-1.24-4.4-4.7-6.2-8.5-7.67-11.58-4.47-23.54-6.96-35.93-6.67Zm-.65,118.08c11.2,.06,20.83-9.09,20.57-20.03-.29-12.34-10.23-20.19-19.84-20.25-11.46-.07-20.48,8.83-20.68,19.8-.21,11.48,9.39,20.75,19.95,20.48Z"/>
          <path d="M98.26,168.22c1.31-1.81,2.25-3.11,3.34-4.62,1.21,.54,2.17,.97,3.14,1.4q-2.18,4.21-6.49,3.22Z"/>
          <path d="M133.55,163.39q.59,5.26-2.22,6.48c-2.1-3.71-1.76-4.81,2.22-6.48Z"/>
          <path d="M189.14,126.51c1.74-2.21,3.02-1.76,4.6-.13-1.69,1.92-2.98,1.67-4.6,.13Z"/>
        </g>
        <g>
          <path class="cls-1" d="M55.3,188.83l3.4-3.65-10.25-9.54,2.9-3.12,10.25,9.54,4.18-4.49,3.69,3.43-13.35,14.34-15.16-14.11,2.88-3.09,11.48,10.68Z"/>
          <path class="cls-1" d="M51.2,161.8l3.04,4.02-15.63,11.82-3.04-4.02,15.63-11.82Z"/>
          <path class="cls-1" d="M25.62,146.73l4.18,8.56,13.81-6.75,2.21,4.53-13.81,6.75,4.18,8.56-3.8,1.86-10.58-21.64,3.8-1.86Z"/>
          <path class="cls-1" d="M16.32,117.41l19.41-2.73,.96,6.79-12.69,15.28,14.56-2.05,.7,4.99-19.41,2.73-.95-6.76,12.72-15.31-14.58,2.05-.7-4.99Z"/>
          <path class="cls-1" d="M21.47,106.28l3.93,.62,2.44-15.49,3.6,.57-2.44,15.49,3.93,.62,2.44-15.49,3.96,.62-3.23,20.47-19.36-3.05,3.23-20.47,3.96,.62-2.44,15.49Z"/>
          <path class="cls-1" d="M35.24,85.39c1.87,.9,3.45-.2,6.23-5.94,2.3-4.76,2.47-6.46,1.08-7.13-1.46-.71-2.2,.18-5.24,5.77-4.07,7.52-6.75,9.98-10.71,8.07-3.88-1.88-3.21-6.43-.02-13.03,3.21-6.66,6.83-9.88,11.19-7.78l-2.19,4.54c-1.94-.94-3.36,.77-5.63,5.49-2.16,4.46-2.24,5.73-.93,6.36,1.36,.66,2.12-.28,4.91-5.28,3.74-6.77,6.2-10.9,10.66-8.75,4.71,2.28,3.52,7.2,.36,13.73-3.49,7.23-6.81,10.95-11.9,8.49l2.19-4.54Z"/>
          <path class="cls-1" d="M48.67,61.96c1.5,1.43,3.35,.88,7.76-3.73,3.66-3.82,4.34-5.38,3.23-6.45-1.17-1.12-2.15-.51-6.77,3.87-6.19,5.9-9.5,7.41-12.68,4.37-3.11-2.98-1.06-7.1,4.01-12.4,5.11-5.34,9.54-7.29,13.04-3.94l-3.49,3.64c-1.56-1.49-3.43-.3-7.05,3.48-3.43,3.58-3.9,4.76-2.85,5.76,1.09,1.05,2.11,.39,6.3-3.5,5.65-5.29,9.26-8.46,12.84-5.03,3.78,3.62,1.12,7.94-3.89,13.17-5.56,5.8-9.86,8.31-13.94,4.4l3.49-3.64Z"/>
        </g>
        <g>
          <path class="cls-1" d="M186.64,58.07c-2.81,2.92-6.66,2.83-9.64-.03l-6.93-6.67-3.37,3.5-3.37-3.24,12.61-13.12,10.31,9.91c2.98,2.87,3.2,6.72,.39,9.65Zm-3.37-3.24c1.91-1.99,.34-3.5-.68-4.47l-6-5.77-3.8,3.95,6,5.77c1.01,.97,2.59,2.49,4.48,.52Z"/>
          <path class="cls-1" d="M192.44,79.07l-2.96,5.63-2.79-4.75,2.7-5-3.82-6.5-4.19,2.46-2.37-4.04,15.69-9.22,7.24,12.33c2.09,3.56,1.27,7.34-2.23,9.39-2.55,1.5-5.2,1.31-7.27-.31Zm-3.49-12.61l4.21,7.17c.71,1.21,1.82,3.09,4.17,1.71,2.38-1.4,1.27-3.28,.56-4.49l-4.21-7.17-4.73,2.78Z"/>
          <path class="cls-1" d="M198.79,83.1c5.84-1.49,9.89,1.02,11.86,8.78,1.97,7.73-.41,11.9-6.22,13.38-5.84,1.49-9.95-1.04-11.91-8.77-1.97-7.76,.41-11.91,6.27-13.4Zm4.49,17.63c3.58-.91,4.78-3.15,3.57-7.88-1.21-4.74-3.3-6.13-6.91-5.22-3.63,.92-4.82,3.19-3.62,7.9,1.2,4.71,3.35,6.12,6.96,5.2Z"/>
          <path class="cls-1" d="M203.47,132.32l-2.12,11.35-9.58-1.79,.63-3.4,2.85,.32c-1.53-2.03-2.25-4.94-1.54-8.75,1.23-6.59,5.26-10.02,11.19-8.91,5.93,1.11,8.45,5.76,7.07,13.12-1.34,7.16-4.79,10.21-9.29,9.66l.87-4.68c1.4,0,3.65-.85,4.56-5.71,1.12-5.98-2.03-7.41-4.17-7.82-2.17-.41-5.7-.19-6.82,5.76-.83,4.45,.78,6.6,2.11,6.96l1.25-6.67,2.99,.56Z"/>
          <path class="cls-1" d="M208.89,148.04l-2.51,5.05-10.54,2.57,4.32,9.95-2.51,5.05-6.36-14.66-5.36-2.66,2.08-4.19,5.36,2.66,15.52-3.79Z"/>
          <path class="cls-1" d="M161.75,182.21l3.33-3.29,8.77,8.88-3.39-14.2,2.4-2.38,14.16,3.56-8.77-8.88,3.33-3.29,12.8,12.95-4.49,4.44-14.45-3.78,3.61,14.49-4.49,4.44-12.8-12.95Z"/>
        </g>
        <circle class="cls-3" cx="115.96" cy="116.03" r="45.27"/>
      </g>
      <path class="cls-2" d="M680.68,184.55h-37.15v30.94h-19.67v-30.94h-35.19v-16.33h35.19v-30.94h19.67v30.94h37.15v16.33Z"/>
    </g>
  </g>
</svg>